<?xml version="1.0" encoding="UTF-8" standalone="no"?>
<svg width="105px" height="33px" viewBox="0 0 105 33" version="1.1" xmlns="http://www.w3.org/2000/svg" xmlns:xlink="http://www.w3.org/1999/xlink">
    <!-- Generator: Sketch 41.2 (35397) - http://www.bohemiancoding.com/sketch -->
    <title>logo</title>
    <desc>Created with Sketch.</desc>
    <defs></defs>
    <g id="Icon-set" stroke="none" stroke-width="1" fill="none" fill-rule="evenodd">
        <g id="logo" fill="#FFFFFF">
            <g id="Group-2" transform="translate(0.000000, 6.000000)">
                <g id="Group" transform="translate(85.000000, 0.000000)">
                    <path d="M5.7810752,10.6858193 C6.39042288,11.2104049 6.77725097,11.9938767 6.77725097,12.8691976 C6.77725097,14.4486335 5.51778207,15.7290193 3.96414846,15.7290193 C2.41051484,15.7290193 1.15104595,14.4486335 1.15104595,12.8691976 C1.15104595,11.2897617 2.41051484,10.0093759 3.96414846,10.0093759 C4.35513722,10.0093759 4.72749559,10.0904668 5.06583808,10.2370076 L3.1900743,13.0179418 C3.06153939,13.2085026 3.1149078,13.4672254 3.30811089,13.5975425 C3.49566364,13.7240484 3.76171132,13.6796494 3.8897246,13.4898619 L5.7810752,10.6858193 Z M15.7682862,8.87630035 C15.8647632,8.86910718 15.9622058,8.86544722 16.0604892,8.86544722 C18.2355763,8.86544722 19.9988328,10.6579873 19.9988328,12.8691976 C19.9988328,15.0804078 18.2355763,16.8729479 16.0604892,16.8729479 C13.8854022,16.8729479 12.1221457,15.0804078 12.1221457,12.8691976 C12.1221457,11.0543737 13.3098939,9.52157044 14.9382442,9.03034238 L14.6575581,7.70981817 C14.6101566,7.48681163 14.7631886,7.26533333 14.9844745,7.21829757 C15.2124269,7.16984478 15.434957,7.30810998 15.4830469,7.5343551 L15.7682862,8.87630035 Z M16.0092277,10.0098412 C16.0262783,10.0095314 16.0433659,10.0093759 16.0604892,10.0093759 C17.6141229,10.0093759 18.8735918,11.2897617 18.8735918,12.8691976 C18.8735918,14.4486335 17.6141229,15.7290193 16.0604892,15.7290193 C14.5068556,15.7290193 13.2473867,14.4486335 13.2473867,12.8691976 C13.2473867,11.6035395 14.0561403,10.529913 15.1769325,10.1532826 L15.7940008,13.056361 C15.8420907,13.2826062 16.0646208,13.4208713 16.2925733,13.3724186 C16.5138591,13.3253828 16.6668912,13.1039045 16.6194897,12.880898 L16.0092277,10.0098412 Z M10.7801866,9.50418484 C10.8037306,9.58471402 10.8163623,9.67023322 10.8163623,9.7591415 L10.8163623,9.77464023 C10.8197244,9.82945103 10.8207172,9.88011995 10.8207172,9.92485465 C10.8207172,9.93293179 10.8192366,9.94065079 10.8163623,9.94802571 L10.8163623,13.6913963 C10.8163623,14.18497 10.4194075,14.5850906 9.92204765,14.5850906 C9.4281313,14.5850906 9.02773298,14.1919563 9.02773298,13.6913963 L9.02773298,10.0078859 L6.21032306,8.09935731 C6.21032306,8.09935731 4.63630353,7.12682661 5.73217963,5.76617787 C6.82805573,4.40552912 8.26931714,3.07792317 8.69112492,2.79401292 C9.1129327,2.51010267 9.7281221,2.63069944 10.1443585,3.04110225 C10.5605949,3.45150506 12.1978571,5.18569542 12.4729272,5.31977561 C12.6190466,5.39100006 12.8406358,5.42109623 13.0162822,5.4336612 L14.7819647,5.4336612 C15.1773476,5.4336612 15.4978687,5.75100476 15.4978687,6.14861662 C15.4978687,6.5434756 15.1863396,6.86357204 14.7819647,6.86357204 L12.8380498,6.86357204 C12.8123325,6.86357204 12.786932,6.86222946 12.7619158,6.85960952 C12.3760464,6.86394438 11.8814989,6.83293503 11.6494511,6.66719169 C11.2391875,6.37415526 10.2825462,5.2882591 10.0657656,5.14601383 C9.84898501,5.00376856 9.84840644,4.92736787 9.50454739,5.25976665 C9.16068835,5.59216544 8.2694878,6.55785645 8.09314137,6.75352665 C7.89277937,6.97584401 8.04511855,7.10904087 8.11843225,7.179992 C8.19174596,7.25094312 9.99344883,8.53627911 10.3883217,8.84340525 C10.6219763,9.02513824 10.7305105,9.27415926 10.7801866,9.50418484 Z M3.96414846,16.8729479 C6.13923552,16.8729479 7.90249197,15.0804078 7.90249197,12.8691976 C7.90249197,10.6579873 6.13923552,8.86544722 3.96414846,8.86544722 C1.7890614,8.86544722 0.0258049455,10.6579873 0.0258049455,12.8691976 C0.0258049455,15.0804078 1.7890614,16.8729479 3.96414846,16.8729479 Z M11.3453936,3.01302642 C12.1685875,3.01302642 12.835918,2.33853748 12.835918,1.50651321 C12.835918,0.674488938 12.1685875,0 11.3453936,0 C10.5221996,0 9.85486909,0.674488938 9.85486909,1.50651321 C9.85486909,2.33853748 10.5221996,3.01302642 11.3453936,3.01302642 Z" id="Oval-8"></path>
                </g>
                <text id="kinetis" font-family="GtekTechnology, Gtek Technology" font-size="17" font-weight="normal" letter-spacing="0.300000012">
                    <tspan x="0.243499964" y="17">kineti</tspan>
                    <tspan x="67.0345" y="17">s</tspan>
                </text>
            </g>
        </g>
    </g>
</svg>